PathFileType	4	(X/Y/Z)	C:/Users/Carlo/Dropbox/Carlos/SARAH/CongressoMarcha2025/WorkshopOpenSim/C3D/Caso03/pyCGM2 Walking02.c3d.trc
DataRate	CameraRate	NumFrames	NumMarkers	Units	OrigDataRate	OrigDataStartFrame	OrigNumFrames
100.000000	100.000000	2	163	mm	100.000000	63	510
Frame#	Time	PELO			PELA			PELL			PELP			LFEO			LFEA			LFEL			LFEP			LTIO			LTIA			LTIL			LTIP			LFOO			LFOA			LFOL			LFOP			LTOO			LTOA			LTOL			LTOP			RFEO			RFEA			RFEL			RFEP			RTIO			RTIA			RTIL			RTIP			RFOO			RFOA			RFOL			RFOP			RTOO			RTOA			RTOL			RTOP			PELVIS_CGM_2.3O			PELVIS_CGM_2.3A			PELVIS_CGM_2.3L			PELVIS_CGM_2.3P			LFEMUR_CGM_2.3O			LFEMUR_CGM_2.3A			LFEMUR_CGM_2.3L			LFEMUR_CGM_2.3P			LTIBIA_CGM_2.3O			LTIBIA_CGM_2.3A			LTIBIA_CGM_2.3L			LTIBIA_CGM_2.3P			LFOOT_CGM_2.3O			LFOOT_CGM_2.3A			LFOOT_CGM_2.3L			LFOOT_CGM_2.3P			LTOES_CGM_2.3O			LTOES_CGM_2.3A			LTOES_CGM_2.3L			LTOES_CGM_2.3P			RFEMUR_CGM_2.3O			RFEMUR_CGM_2.3A			RFEMUR_CGM_2.3L			RFEMUR_CGM_2.3P			RTIBIA_CGM_2.3O			RTIBIA_CGM_2.3A			RTIBIA_CGM_2.3L			RTIBIA_CGM_2.3P			RFOOT_CGM_2.3O			RFOOT_CGM_2.3A			RFOOT_CGM_2.3L			RFOOT_CGM_2.3P			RTOES_CGM_2.3O			RTOES_CGM_2.3A			RTOES_CGM_2.3L			RTOES_CGM_2.3P			LASI			RASI			LPSI			RPSI			LTHI			LTHAP			LTHAD			LKNE			LTIB			LTIAP			LTIAD			LANK			LHEE			LTOE			RTHI			RTHAP			RTHAD			RKNE			RTIB			RTIAP			RTIAD			RANK			RHEE			RTOE			LHipAngles			LKneeAngles			LAbsAnkleAngle			LAnkleAngles			RHipAngles			RKneeAngles			RAnkleAngles			RAbsAnkleAngle			LPelvisAngles			RPelvisAngles			LFootProgressAngles			RFootProgressAngles			LHipAngles_CGM_2.3			LKneeAngles_CGM_2.3			LAnkleAngles_CGM_2.3			RHipAngles_CGM_2.3			RKneeAngles_CGM_2.3			RAnkleAngles_CGM_2.3			LFootProgressAngles_CGM_2.3			RFootProgressAngles_CGM_2.3			LPelvisAngles_CGM_2.3			RPelvisAngles_CGM_2.3			LHipPower			LKneePower			LAnklePower			RHipPower			RKneePower			RAnklePower			LHipPower_CGM_2.3			LKneePower_CGM_2.3			LAnklePower_CGM_2.3			RHipPower_CGM_2.3			RKneePower_CGM_2.3			RAnklePower_CGM_2.3			RGroundReactionForce			RNormalisedGRF			LAnkleForce			RAnkleForce			RKneeForce			LKneeForce			RHipForce			LHipForce			LHipForce_CGM_2.3			LKneeForce_CGM_2.3			LAnkleForce_CGM_2.3			RHipForce_CGM_2.3			RKneeForce_CGM_2.3			RAnkleForce_CGM_2.3			RGroundReactionMoment			LAnkleMoment			RAnkleMoment			RKneeMoment			LKneeMoment			RHipMoment			LHipMoment			LHipMoment_CGM_2.3			LKneeMoment_CGM_2.3			LAnkleMoment_CGM_2.3			RHipMoment_CGM_2.3			RKneeMoment_CGM_2.3			RAnkleMoment_CGM_2.3			LHJC_CGM_2.3			LKJC_CGM_2.3			RHJC_CGM_2.3			RKJC_CGM_2.3			LAJC_CGM_2.3			RAJC_CGM_2.3			
		X1	Y1	Z1	X2	Y2	Z2	X3	Y3	Z3	X4	Y4	Z4	X5	Y5	Z5	X6	Y6	Z6	X7	Y7	Z7	X8	Y8	Z8	X9	Y9	Z9	X10	Y10	Z10	X11	Y11	Z11	X12	Y12	Z12	X13	Y13	Z13	X14	Y14	Z14	X15	Y15	Z15	X16	Y16	Z16	X17	Y17	Z17	X18	Y18	Z18	X19	Y19	Z19	X20	Y20	Z20	X21	Y21	Z21	X22	Y22	Z22	X23	Y23	Z23	X24	Y24	Z24	X25	Y25	Z25	X26	Y26	Z26	X27	Y27	Z27	X28	Y28	Z28	X29	Y29	Z29	X30	Y30	Z30	X31	Y31	Z31	X32	Y32	Z32	X33	Y33	Z33	X34	Y34	Z34	X35	Y35	Z35	X36	Y36	Z36	X37	Y37	Z37	X38	Y38	Z38	X39	Y39	Z39	X40	Y40	Z40	X41	Y41	Z41	X42	Y42	Z42	X43	Y43	Z43	X44	Y44	Z44	X45	Y45	Z45	X46	Y46	Z46	X47	Y47	Z47	X48	Y48	Z48	X49	Y49	Z49	X50	Y50	Z50	X51	Y51	Z51	X52	Y52	Z52	X53	Y53	Z53	X54	Y54	Z54	X55	Y55	Z55	X56	Y56	Z56	X57	Y57	Z57	X58	Y58	Z58	X59	Y59	Z59	X60	Y60	Z60	X61	Y61	Z61	X62	Y62	Z62	X63	Y63	Z63	X64	Y64	Z64	X65	Y65	Z65	X66	Y66	Z66	X67	Y67	Z67	X68	Y68	Z68	X69	Y69	Z69	X70	Y70	Z70	X71	Y71	Z71	X72	Y72	Z72	X73	Y73	Z73	X74	Y74	Z74	X75	Y75	Z75	X76	Y76	Z76	X77	Y77	Z77	X78	Y78	Z78	X79	Y79	Z79	X80	Y80	Z80	X81	Y81	Z81	X82	Y82	Z82	X83	Y83	Z83	X84	Y84	Z84	X85	Y85	Z85	X86	Y86	Z86	X87	Y87	Z87	X88	Y88	Z88	X89	Y89	Z89	X90	Y90	Z90	X91	Y91	Z91	X92	Y92	Z92	X93	Y93	Z93	X94	Y94	Z94	X95	Y95	Z95	X96	Y96	Z96	X97	Y97	Z97	X98	Y98	Z98	X99	Y99	Z99	X100	Y100	Z100	X101	Y101	Z101	X102	Y102	Z102	X103	Y103	Z103	X104	Y104	Z104	X105	Y105	Z105	X106	Y106	Z106	X107	Y107	Z107	X108	Y108	Z108	X109	Y109	Z109	X110	Y110	Z110	X111	Y111	Z111	X112	Y112	Z112	X113	Y113	Z113	X114	Y114	Z114	X115	Y115	Z115	X116	Y116	Z116	X117	Y117	Z117	X118	Y118	Z118	X119	Y119	Z119	X120	Y120	Z120	X121	Y121	Z121	X122	Y122	Z122	X123	Y123	Z123	X124	Y124	Z124	X125	Y125	Z125	X126	Y126	Z126	X127	Y127	Z127	X128	Y128	Z128	X129	Y129	Z129	X130	Y130	Z130	X131	Y131	Z131	X132	Y132	Z132	X133	Y133	Z133	X134	Y134	Z134	X135	Y135	Z135	X136	Y136	Z136	X137	Y137	Z137	X138	Y138	Z138	X139	Y139	Z139	X140	Y140	Z140	X141	Y141	Z141	X142	Y142	Z142	X143	Y143	Z143	X144	Y144	Z144	X145	Y145	Z145	X146	Y146	Z146	X147	Y147	Z147	X148	Y148	Z148	X149	Y149	Z149	X150	Y150	Z150	X151	Y151	Z151	X152	Y152	Z152	X153	Y153	Z153	X154	Y154	Z154	X155	Y155	Z155	X156	Y156	Z156	X157	Y157	Z157	X158	Y158	Z158	X159	Y159	Z159	X160	Y160	Z160	X161	Y161	Z161	X162	Y162	Z162	X163	Y163	Z163	

64	0.63	-2601.891357421876	892.3039550781255	-48.20171737670901	-2440.817626953126	876.474975585938	-57.68610000610354	-2611.709716796876	889.341918945313	-210.0043334960939	-2586.267333984376	1053.629516601563	-52.10309982299808	-2541.138671875001	488.3101806640627	-155.9538879394532	-2142.579101562501	559.6019287109377	-210.903533935547	-2599.916259765626	505.5320739746096	-559.9345703125002	-2609.308837890626	890.2711791992192	-128.8995971679688	-2825.529541015626	223.6286926269532	-107.6259384155274	-2573.470214843751	-48.6191101074219	-115.396957397461	-2864.390625000001	198.1584777832032	-475.8029785156252	-2555.957519531251	474.5182189941409	-153.4356384277344	-2756.112548828126	119.4214248657227	-143.5862426757813	-2618.199951171876	237.145965576172	-158.590805053711	-2790.573730468751	137.1343536376954	-321.3578491210939	-2869.675781250001	257.0123291015626	-107.8625183105469	-2718.258056640626	73.55780029296878	-155.4941864013672	-2672.287109375001	112.7994079589844	-160.4956817626954	-2729.745117187501	79.46215820312503	-214.7513732910157	-2756.112548828126	119.4214630126954	-143.5862121582032	-2557.856689453126	478.6724548339846	19.60758209228516	-2145.456542968751	513.300476074219	74.47808837890628	-2504.292968750001	496.2172546386721	-394.0430603027346	-2594.473632812501	894.336791992188	32.4962615966797	-2636.692626953126	86.44840240478518	-5.689418792724611	-2268.120849609376	8.813217163085941	49.40392684936526	-2577.887939453126	98.87248992919928	-381.5821228027345	-2561.829345703126	458.9079284667971	18.33280754089356	-2512.700439453126	72.50232696533206	29.32842254638673	-2511.103027343751	253.4096069335939	34.82699966430665	-2479.114257812501	77.60930633544925	-148.4526672363282	-2690.547607421876	75.09172821044925	-4.195846557617189	-2453.417968750001	71.63919830322268	40.50316238403322	-2452.885498046876	131.9416046142579	42.33595275878908	-2442.222656250001	73.34146118164065	-18.75718688964844	-2512.700439453126	72.50229644775393	29.32843399047853	-2608.139892578126	910.3939819335942	-48.15179824829104	-2448.340576171876	897.6585083007817	-56.62821197509768	-2617.211669921876	903.1308593750005	-208.2606201171876	-2595.821289062501	1070.253173828125	-56.10158157348636	-2525.040039062501	479.653015136719	-158.6909942626954	-2113.185302734376	573.535583496094	-266.4316711425782	-2636.839843750001	486.6144104003909	-579.9968872070315	-2614.050048828126	905.3100585937505	-128.037582397461	-2821.120117187501	210.9120025634767	-111.9779968261719	-2597.219238281251	-67.91688537597659	-296.8973388671876	-2976.915039062501	320.935516357422	-466.5129699707034	-2525.031250000001	479.6526489257815	-158.6909179687501	-2743.060058593751	103.9739990234376	-124.3410034179688	-2606.448974609376	227.4760131835939	-148.3767700195313	-2785.002197265626	115.2247772216797	-304.9159545898439	-2861.682617187501	242.2263488769532	-88.17471313476565	-2703.520019531251	57.88990020751956	-136.3959960937501	-2657.983154296876	99.05718994140631	-144.4079132080079	-2717.500732421876	61.64015579223636	-196.5875854492189	-2743.060791015626	103.9739685058594	-124.3405761718751	-2557.459960937501	475.7619934082034	20.06529998779298	-2120.431640625001	518.8926391601565	71.41151428222659	-2507.533935546876	492.4943542480471	-418.9311218261721	-2602.226806640626	915.4780883789067	31.73385620117189	-2633.739990234376	84.65969848632815	-4.664969921112062	-2253.674804687501	4.686981201171877	87.77902984619143	-2538.226074218751	90.53970336914065	-392.2646789550784	-2557.460205078126	475.7616882324221	20.06537246704102	-2497.899902343751	71.41130065917972	7.415490150451664	-2497.341308593751	262.6832885742189	13.57710552215577	-2463.045654296876	77.36822509765628	-180.6614685058594	-2686.070312500001	73.08243560791018	-27.40315628051759	-2435.169921875001	70.85420227050784	19.02169990539551	-2434.983642578126	134.6114654541016	21.07556915283204	-2423.551757812501	72.83984375000003	-43.67055511474611	-2497.893310546876	71.411247253418	7.415496826171879	-2560.272216796876	973.8647460937505	-184.1334228515626	-2544.326904296876	978.675170898438	78.63716125488284	-2750.435791015626	992.4917602539067	-92.642204284668	-2744.937744140626	998.438598632813	9.669795036315922	-2572.796875000001	642.0046997070315	-226.5565032958986	-2499.710937500001	783.9126586914067	-181.1769256591797	-2458.922363281251	625.155700683594	-170.3993530273438	-2549.481933593751	490.7547912597659	-213.298553466797	-2721.267089843751	344.7014770507814	-187.3824462890626	-2558.505126953126	380.4199829101564	-140.2989501953126	-2698.887451171876	272.5409545898439	-112.7832641601563	-2840.334960937501	222.0092163085939	-147.9642181396485	-2877.568115234376	225.250701904297	-94.00146484375003	-2759.110107421876	87.4731140136719	-133.2333526611329	-2590.902587890626	689.952087402344	121.3269805908204	-2495.364990234376	778.991821289063	58.22723388671878	-2492.236328125001	612.486022949219	38.16174316406251	-2565.234130859376	476.2559204101565	76.58110809326175	-2613.282470703126	298.4992065429689	83.83509063720706	-2555.620605468751	324.4062500000001	-8.544262886047367	-2578.891845703126	188.6355438232422	-5.87855100631714	-2646.715576171876	75.61499023437503	34.69836807250978	-2689.852539062501	49.76389312744143	-16.32369995117188	-2500.425048828126	47.43415451049806	16.57827949523926	-4.240846157073976	-4.137570858001711	15.45048904418946	2.639304399490357	6.202349662780765	57.56825637817386	0	0	-1.926751732826234	2.81603503227234	0.441540598869324	-1.926784873008729	2.504062175750733	-11.11011123657227	10.73899173736573	-0.2191531360149385	-1.589993238449098	16.48281288146973	-0.2033439874649049	0.4104723632335665	11.00736141204834	0	0	11.00706577301026	-1.378890037536622	-3.35468101501465	5.531732082366945	1.378890037536622	3.35468101501465	5.531732082366945	4.824567794799806	-11.32323074340821	-39.53524398803712	1.771514773368836	-10.67389965057373	-89.16584777832034	-5.898709774017336	-10.6230001449585	16.61489868164063	-3.774240016937258	-16.90859985351563	60.3606986999512	-0.6594740152359011	16.20779991149903	-0.2726950049400331	3.761100053787233	-10.16460037231446	10.45549964904786	0.1636160016059876	-7.468929767608646	16.95429992675782	-0.9091219902038579	3.352099657058718	11.00590038299561	-7.581900119781498	-168.7709960937501	-139.3699951171876	-178.1239776611329	10.48289966583252	89.4912033081055	182.593002319336	-3.242919921875002	-175.4450073242188	-182.593002319336	3.242919921875002	-175.4450073242188	0	0.1222020387649537	0	0	0.1914512366056443	0	0	0.02879788354039194	0	nan	nan	nan	nan	nan	nan	nan	nan	nan	nan	nan	nan	nan	nan	nan	nan	nan	nan	nan	nan	nan	nan	nan	nan	nan	nan	nan	nan	nan	nan	nan	nan	nan	-0.03328864276409151	0.05486089736223224	-0.09864232689142233	nan	nan	nan	nan	nan	nan	-0.06478969007730487	0.1841452866792679	-0.0589115843176842	nan	nan	nan	-0.03246966376900674	0.9522513151168828	-0.0626877769827843	-0.1232440024614335	0.9870439767837529	0.1459980010986329	-0.05466580018401149	0.1267579942941666	0.06290099769830707	-0.06202000007033351	0.09270620346069339	0.07563149929046634	0.02189010009169579	1.523270010948182	-0.09333840012550357	0.05527510121464732	0.6149929761886599	0.1208340004086495	0.006492699962109331	0.0009082530159503226	0.1501370072364808	nan	nan	nan	1.464564752669772e-15	-7.155018806457523	-13.98332500457764	nan	nan	nan	nan	nan	nan	-4.627627849578859	-7.825412750244144	104.9277420043946	nan	nan	nan	-45.61694335937501	11.82272148132325	-50.38080215454104	-31.01000022888185	17.59919929504395	-17.64990043640137	-27.35589981079103	-4.907120227813722	114.8030014038087	-1.443940043449402	-4.927269935607912	-9.357230186462406	-54.97809982299808	3.462209939956667	-34.40639877319337	-12.16489982604981	-0.0337641015648842	-19.35930061340333	-0.8400909900665288	0.1885489970445634	-5.203780174255373	-2614.050048828126	905.3099975585942	-128.0370025634766	-2525.040039062501	479.653015136719	-158.6909942626954	-2602.229980468751	915.4780273437505	31.73390007019044	-2557.459960937501	475.7619934082034	20.06529998779298	-2821.120117187501	210.9120025634767	-111.9779968261719	-2633.739990234376	84.65969848632815	-4.664969921112062	
65	0.64	-2588.833007812501	893.6939086914067	-47.66675567626955	-2427.703125000001	877.7892456054692	-56.00062561035159	-2597.455566406251	891.160766601563	-209.5447692871095	-2573.083007812501	1055.019287109375	-51.03018188476565	-2518.505859375001	491.7062072753909	-155.3261871337891	-2120.891357421876	571.6077270507815	-203.6011199951173	-2571.068115234376	508.778991699219	-559.9961547851565	-2595.654541015626	891.8765258789067	-128.4224243164063	-2791.804687500001	214.8031616210939	-108.0461349487305	-2528.375976562501	-46.97177124023439	-118.440658569336	-2830.728271484376	190.2724914550782	-476.708679199219	-2532.731201171876	477.2930603027346	-152.8652343750001	-2716.314453125001	115.1860656738282	-144.7705688476563	-2585.800048828126	241.1084442138673	-159.3861541748047	-2752.235107421876	131.8043060302735	-322.3588867187501	-2837.886474609376	245.4606018066407	-107.9895324707032	-2675.790527343751	71.7612228393555	-157.0309295654297	-2632.285644531251	113.7352600097657	-161.9026641845704	-2687.763916015626	77.30069732666018	-216.2270050048829	-2716.314453125001	115.1861114501954	-144.7706604003907	-2554.194335937501	478.3212585449221	19.91018295288087	-2140.728515625001	504.0541076660159	78.03797149658206	-2497.034912109376	495.2122802734377	-394.1459045410159	-2582.011718750001	895.5112915039067	33.08892059326173	-2635.974121093751	86.66555786132815	-5.619458675384523	-2268.537109375001	6.115814208984379	53.08911895751956	-2573.492431640626	98.08780670166021	-380.9999084472657	-2558.314697265626	458.587829589844	18.62390518188477	-2512.067138671876	72.38108825683597	29.56124114990236	-2509.991210937501	253.2825012207032	35.09088134765626	-2478.230468750001	77.425651550293	-148.1741333007813	-2689.861816406251	75.45339202880862	-4.199489593505861	-2452.802246093751	71.35699462890628	40.81478500366212	-2452.110107421876	131.6574707031251	42.65798950195314	-2441.523437500001	73.03848266601565	-18.43035125732423	-2512.067138671876	72.38120269775393	29.56125259399415	-2594.989990234376	911.7490234375005	-48.08629989624026	-2435.141113281251	898.9516601562505	-55.46247100830081	-2602.872314453126	905.6395874023442	-208.3062286376954	-2582.498046875001	1071.651489257813	-54.79822540283206	-2502.179931640626	483.5629882812502	-158.270004272461	-2090.950195312501	586.093444824219	-260.3682861328126	-2608.513671875001	489.0888366699221	-581.0097656250002	-2600.311035156251	907.241333007813	-128.0485382080079	-2787.120117187501	202.9329986572267	-112.1549987792969	-2551.514648437501	-66.56398010253909	-296.3662109375001	-2946.398681640626	306.3282775878907	-467.1367492675784	-2502.176757812501	483.562683105469	-158.2688598632813	-2702.679931640626	101.0609970092774	-125.3909912109376	-2573.795654296876	232.8627929687501	-147.9774017333985	-2744.984863281251	111.4910430908204	-305.9306030273439	-2829.534667968751	231.4931030273439	-88.13052368164065	-2660.399902343751	57.58380126953128	-137.8110046386719	-2617.438476562501	101.5176849365235	-145.3397979736329	-2674.501464843751	61.06048202514651	-197.9908142089845	-2702.684814453126	101.0611190795899	-125.3908615112305	-2553.860107421876	475.7139892578127	20.47550010681153	-2116.507812500001	509.8443298339846	75.68826293945315	-2499.727294921876	491.4634704589846	-418.0584716796877	-2589.678466796876	916.2563476562505	31.87566375732423	-2633.399902343751	85.29119873046878	-4.72361993789673	-2254.412109375001	2.019577026367188	89.2179870605469	-2536.276611328126	90.49686431884768	-391.9327697753909	-2553.862060546876	475.7136230468752	20.47563552856446	-2497.629882812501	71.47299957275393	7.60746002197266	-2496.287109375001	262.738739013672	13.84148979187012	-2462.397216796876	77.35350036621097	-180.4013977050782	-2685.725830078126	73.93997192382815	-27.56427383422853	-2434.929931640626	70.65070343017581	19.33139991760255	-2434.482421875001	134.4058837890626	21.40940856933594	-2423.185791015626	72.61087036132815	-43.33815002441408	-2497.628417968751	71.47302246093753	7.607501029968265	-2546.152343750001	975.5858764648442	-182.9280090332032	-2532.164550781251	979.6952514648442	79.67529296875003	-2737.002929687501	993.9423828125005	-93.48967742919925	-2732.211425781251	999.8897094726567	8.842716217041019	-2552.478271484376	645.634704589844	-226.7100677490236	-2483.207031250001	788.3757934570317	-179.628890991211	-2439.075927734376	631.017761230469	-168.9235229492188	-2525.969970703126	494.1307067871096	-212.7927551269532	-2692.736816406251	340.8023681640626	-187.2020568847657	-2531.601562500001	383.3378906250001	-139.9677276611329	-2667.410156250001	269.591522216797	-112.6682052612305	-2806.651611328126	212.8502807617189	-148.3544311523438	-2844.405273437501	213.6210021972657	-94.11686706542972	-2717.822998046876	83.89080047607425	-134.4308013916016	-2583.428466796876	690.375671386719	121.4169311523438	-2485.066894531251	778.0055541992192	59.83592224121097	-2485.812255859376	610.9498291015627	39.3042449951172	-2562.051025390626	475.9995117187502	76.82353973388675	-2611.673828125001	298.7171936035157	83.81559753417972	-2553.478271484376	324.1271362304689	-8.225557327270511	-2577.759033203126	188.5565795898438	-5.682332992553713	-2646.468261718751	75.97028350830081	34.68544006347658	-2689.671630859376	50.38179397583011	-16.64163780212403	-2500.278076171876	47.40822982788087	16.75153160095216	-4.07332754135132	-3.631682872772219	16.73594284057618	3.400679588317873	5.344723701477053	56.38899993896487	0	0	-0.8910140991210942	2.567085504531861	0.6484449505805971	-0.8910573124885564	2.493202447891236	-11.09582710266114	9.537837982177738	-0.2457338273525239	-1.679088234901429	15.69745540618897	-0.3424856364727021	0.8878453969955449	11.28514671325684	0	0	11.28373813629151	-1.188731670379639	-2.947110891342164	5.576076984405519	1.188731670379639	2.947110891342164	5.576076984405519	4.704875946044924	-11.6629810333252	-43.02095794677736	1.781969189643861	-10.7500581741333	-89.01004028320315	-5.458499908447267	-10.32849979400635	17.83009910583497	-3.022559881210329	-17.03109931945801	59.27560043334964	-0.8898379802703862	15.88500022888184	1.005130052566529	3.421240091323854	-10.16339874267578	9.298079490661625	0.1934979856014253	-7.157090187072757	16.28630065917969	-0.9675350189208989	3.479350090026857	11.25450038909912	-7.130929470062259	-168.4270019531251	-135.7969970703126	-178.1009979248047	10.59049987792969	89.24859619140628	182.1809997558594	-2.816560029983521	-175.4239959716797	-182.1809997558594	2.816560029983521	-175.4239959716797	0	0.07387778162956241	0	0	0.2113519459962846	0	0	0.03015150129795076	0	nan	nan	nan	nan	nan	nan	nan	nan	nan	nan	nan	nan	nan	nan	nan	nan	nan	nan	nan	nan	nan	nan	nan	nan	nan	nan	nan	nan	nan	nan	nan	nan	nan	-0.02632153593003751	0.03422866389155389	-0.1186102852225304	nan	nan	nan	nan	nan	nan	-0.06618014723062518	0.224357694387436	-0.09667782485485082	nan	nan	nan	-0.02228040434420109	0.9689785242080693	-0.06413117796182635	-0.1125919967889786	0.9756289720535283	0.1333899945020676	-0.0463978983461857	0.1640630066394806	0.09087339788675311	-0.05030279979109767	0.07191629707813266	0.09220740199089053	0.02998940087854864	1.507599949836732	-0.08740220218896869	0.05639959871768954	0.6110919713974001	0.119088999927044	0.007637530099600557	0.000407868006732315	0.1505700051784516	nan	nan	nan	1.464564752669772e-15	-5.137466907501222	-16.09288787841798	nan	nan	nan	nan	nan	nan	-8.023136138916019	-5.849600791931154	87.0767517089844	nan	nan	nan	-40.80313873291017	12.99760723114014	-31.85242843627931	-28.03030014038087	16.26090049743653	-2.428210020065309	-23.89690017700196	-3.19745993614197	98.07640075683599	-1.308099985122681	-3.124239921569826	-9.984029769897464	-54.71390151977542	3.432830095291139	-31.0771999359131	-12.82460021972657	-0.09916509687900549	-21.12569999694825	-0.8892890214920048	0.1382769942283631	-5.132420063018801	-2600.310058593751	907.2420043945317	-128.0480041503907	-2502.179931640626	483.5629882812502	-158.270004272461	-2589.679931640626	916.255981445313	31.87559890747072	-2553.860107421876	475.7139892578127	20.47550010681153	-2787.120117187501	202.9329986572267	-112.1549987792969	-2633.399902343751	85.29119873046878	-4.72361993789673	
